<svg id="Icons" height="512" viewBox="0 0 74 74" width="512" xmlns="http://www.w3.org/2000/svg"><path d="m63.8 3.11a1 1 0 0 0 -1.23-1.11c-.8.2-19.67 5.11-36 28.07-.1.13-9.61 12.68-14.9 32.56a1 1 0 0 0 .78 1.24 20.59 20.59 0 0 0 3.65.28h.67c5.66-.12 16.46-2.07 25.25-13.74a1 1 0 0 0 0-1.17 1 1 0 0 0 -1.1-.39 35 35 0 0 1 -8 1.22c8.29-3.77 27.54-15.85 30.88-46.96z"/><path d="m16.14 66.18a36.61 36.61 0 0 1 -5.14-.51 43.15 43.15 0 0 0 -.83 5.27 1 1 0 0 0 .43.89 1.06 1.06 0 0 0 .57.17 1 1 0 0 0 .42-.09l4.31-2a1 1 0 0 0 .56-.69l.68-3.06h-1z"/></svg>